<?xml version="1.0" standalone="no"?><!DOCTYPE svg PUBLIC "-//W3C//DTD SVG 1.1//EN" "http://www.w3.org/Graphics/SVG/1.1/DTD/svg11.dtd"><svg t="1722588192805" class="icon" viewBox="0 0 1024 1024" version="1.1" xmlns="http://www.w3.org/2000/svg" p-id="8667" width="40" height="40" xmlns:xlink="http://www.w3.org/1999/xlink"><path d="M248.127705 822.641993 779.210319 822.641993 779.210319 568.130392l69.282946 0 0 254.511601c0 38.315654-30.967292 69.39551-69.282946 69.39551L248.127705 892.037503c-38.315654 0-69.27783-31.079856-69.27783-69.39551L178.849876 568.130392l69.27783 0L248.127705 822.641993 248.127705 822.641993z" fill="#272636" p-id="8668"></path><path d="M368.885 732.360803l-2.456958-3.464915c-4.845355-6.830569-10.771321-13.650905-17.613146-20.269649l-3.25616-3.148713 3.635807-2.703575c25.88146-19.24839 43.231617-40.015366 51.570539-61.726853l0.057305-0.144286c8.165983-18.97619 12.307304-51.971675 12.307304-98.06855l0-82.295308 32.253588 0 0 72.405053c0 37.372166-2.238994 68.050885-6.66991 91.452875l3.650133-3.400446 2.625804 2.728134c23.232121 24.15412 43.810808 46.340421 61.157895 65.941851l2.615571 2.955308-27.564799 23.185049-2.454912-3.145643c-14.782681-18.944468-31.141254-38.451754-48.687886-58.0583-9.417487 24.518417-28.884864 49.707099-57.967226 74.972529L368.885 732.360803zM617.177969 722.666c-19.464307 0-40.517809-0.457418-62.571081-1.364067l-3.176342-0.130983-0.470721-3.14155c-1.352811-9.002025-3.169179-18.305925-5.393847-27.646664l-1.27197-5.330402 5.447059 0.617054c21.852704 2.474354 42.147936 3.841491 60.32083 4.065596 21.895683-0.209778 32.717146-10.328229 33.969673-31.842219 1.555425-37.849026 2.689249-100.516298 3.371794-186.242751L539.911188 471.650013c-8.110725 18.87079-16.660448 36.43891-25.435299 52.244898l-2.00875 3.619434-3.463891-2.26867c-5.115508-3.349281-11.241019-6.677073-18.260899-9.912767l0 105.153922 2.288113-1.440815c7.261381-4.563946 12.737092-10.880815 16.274662-18.778692 12.329816-29.826306 24.205285-66.38085 35.253922-108.546182l0.954745-3.634784 33.638121 7.965415-1.287319 3.971451c-12.901845 39.776935-25.863041 77.061097-38.556131 110.924345 16.089443-0.973164 33.112142-2.112104 50.752918-3.397377-5.039783-18.356067-10.461259-37.20639-16.130376-56.109925l-1.113357-3.722788 30.858822-8.93858 1.139963 3.566222c10.395768 32.555463 20.62269 67.263963 30.397311 103.158475l0.992607 3.638877-32.980135 9.6815-1.019213-3.807722c-1.543146-5.77554-3.027963-11.730159-4.419659-17.740036-22.652929 1.538029-43.270503 3.40454-61.32674 5.557576-9.809413 1.113357-19.85828 2.922563-29.894867 5.374404l-3.037173 0.741897-12.787234-26.797319 0 2.975774-32.252565 0L458.488761 438.566524l-58.467623 0 0 188.605565-32.255635 0L367.765503 405.975245l122.975822 0 0 88.346117c18.917862-31.508621 33.44267-66.842361 43.24185-105.234763l0.929162-3.631714 34.733059 7.91118-1.342578 4.025687c-4.804423 14.411221-9.855462 28.396747-15.042601 41.659819l128.523165 0-0.048095 3.894703c-1.36509 110.204961-2.743484 184.480618-4.095271 220.767056C675.470607 702.855816 655.12728 722.666 617.177969 722.666z" fill="#272636" p-id="8669"></path><path d="M145.945465 452.370925 68.58147 452.370925l-5.436826 0 0-69.27783 90.551342 0 0 0.054235 349.080443-292.709575 366.529861 292.656363 89.456405 0 0 69.27783L848.493266 452.371948l-1.801019 0-343.915817-268.955568-309.295322 255.181867C193.481108 438.597223 177.06523 452.370925 145.945465 452.370925z" fill="#272636" p-id="8670"></path></svg>