<svg t="1722584650803" class="icon" viewBox="0 0 1163 1024" version="1.1" xmlns="http://www.w3.org/2000/svg" p-id="6784" width="25" height="25"><path d="M1150.581205 433.01499l1.870082 1.480482q-0.922055-0.779201-1.870082-1.480482zM10.519214 435.144807l3.376537-2.675257a32.466709 32.466709 0 0 0-3.376537 2.675257z" p-id="6785" fill="#1296db"></path><path d="M1010.623716 443.053697a30.58364 30.58364 0 0 0-30.570653 30.440786v407.613038c0 56.375193-25.285073 81.64728-81.660267 81.647279H735.072264v-224.539759c0-22.544883-15.986607-40.830133-35.726367-40.830133H464.624578c-19.726772 0-35.726367 18.272264-35.726366 40.830133v224.526773H265.564692c-56.375193 0-81.660266-25.285073-81.660266-81.64728V473.494483a30.6226 30.6226 0 0 0-61.232213 0v448.443171a102.062346 102.062346 0 0 0 102.062346 102.062346h265.395866V784.148941c0-14.090552 9.090679-25.518833 20.415066-25.518833h142.85352c11.272441 0 20.415067 11.428282 20.415066 25.518833V1024h265.395866a102.062346 102.062346 0 0 0 102.062346-102.062346V473.494483h-0.07792a30.58364 30.58364 0 0 0-30.570653-30.440786z" fill="#1296db" p-id="6786"></path><path d="M1159.827724 432.015016a30.908307 30.908307 0 0 0-7.311503-8.908865c-0.636347-0.480507-424.885327-334.848649-560.36241-419.78156a17.324236 17.324236 0 0 0-20.415067 0C436.859049 88.179581 11.649055 422.911351 10.61012 423.794445a29.453798 29.453798 0 0 0-6.493341 8.246544 32.271909 32.271909 0 0 0 47.245555 41.726215c0.935041-0.727254 518.675155-387.431731 518.675155-387.431732a18.441091 18.441091 0 0 1 23.960431 0l517.856994 386.808371a32.271909 32.271909 0 0 0 47.97281-41.128827z" fill="#1296db" p-id="6787"></path></svg>