<?xml version="1.0" standalone="no"?><!DOCTYPE svg PUBLIC "-//W3C//DTD SVG 1.1//EN" "http://www.w3.org/Graphics/SVG/1.1/DTD/svg11.dtd"><svg t="1722588499772" class="icon" viewBox="0 0 1024 1024" version="1.1" xmlns="http://www.w3.org/2000/svg" p-id="13949" xmlns:xlink="http://www.w3.org/1999/xlink" width="40" height="40"><path d="M25.595001 515.099395c1.099785 0 1.099785 1.099785 2.299551 2.299551-2.299551-2.299551-5.099004 5.099004-7.398555 2.29955-1.099785 5.099004 3.999219 5.099004 7.398555 2.799454 2.799453 43.291545 5.698887 86.483109 26.194884 134.373755l-5.099004 5.099004c2.299551 2.299551 2.799453-2.299551 7.398555 2.799453-2.799453 2.299551-2.799453 2.299551 0 7.398555-2.799453 2.299551-5.099004-1.099785-5.099005-1.099785l2.299551 2.799453c0 0.599883 0.599883 0.599883 1.099785 0.599883H54.089436c-2.299551 0-4.599102 0-5.099004-1.699668 0 0 0 5.099004-2.799454 7.398555l3.999219 5.099004c1.099785-10.198008 7.998438-1.099785 6.29877-9.098223 2.299551 2.799453 5.099004 1.099785 5.099004 1.099785 3.999219 9.698106 6.29877 17.596563 12.497559 31.293888-2.299551 2.299551-5.099004 3.999219-2.799453 7.398555-2.799453 2.799453-2.799453-2.299551-7.998438 2.299551 2.299551 2.299551 2.799453-2.299551 7.398555 2.799453l-2.799453 2.299551 3.999219 5.099004c2.299551-2.299551 2.299551-6.798672 1.099785-9.698106 1.699668-2.299551-0.599883-4.599102 2.799453-6.798672-1.099785 5.099004 2.299551 7.998438 6.29877 13.097442l-5.099004 3.999219c9.098223-7.398555 17.596563 13.697325 16.496778 18.796329 7.398555 3.399336 7.998438 15.896895 20.495997 25.095098-2.299551 2.299551 2.299551 2.799453-2.799454 7.398555 2.299551 2.799453 5.099004 1.099785 5.099005 1.099786 15.396993 22.195665 34.193322 43.291545 51.789884 61.48799-2.299551-1.099785-3.999219 0-5.099004 1.099785-0.599883 2.299551 1.099785 2.299551 2.799454 2.299551l-1.099786-1.099785c1.099785 0 2.299551 0 2.799454 0.599883 0.599883 0 1.699668-0.599883 2.29955-0.599883 11.397774 11.997657 21.09588 23.29545 28.994337 33.593439 3.999219 1.099785 0-5.099004 5.099005-3.999219 36.392892 34.193322 75.685218 48.990432 116.077328 75.685218 22.795548 0 44.39133 19.396212 69.486429 17.596563 6.29877 9.098223 10.198008 2.299551 14.197227 7.398555 5.099004 1.099785 10.198008 1.099785 15.396993 2.299551 9.098223 6.29877 22.195665 5.099004 34.193321 9.098223 9.698106 1.099785 19.896114 2.299551 30.194103-2.299551l3.999219 5.099004c11.397774-9.098223 22.195665 5.099004 30.194102-2.299551l3.999219 5.099004 7.998438-7.398555c28.494435 3.999219 57.488772-2.299551 86.483109-8.49834l6.798672-1.699668c2.299551 2.799453-1.099785 5.099004-1.099785 5.099004 2.799453 2.299551 6.29877-5.099004 7.998438-2.299551 2.299551-2.299551-2.299551-2.799453 2.799453-7.398555 3.999219 6.29877-1.099785 10.198008 1.099785 13.097442-2.799453 2.799453-5.099004 0-7.998438 2.299551-2.299551-7.398555-5.099004 0-7.398555-2.799453l-1.099785 5.099004c2.299551 2.799453 6.29877-3.999219 5.099004 1.099785-2.799453 0-2.299551 2.299551-2.299551 3.999219l5.099004-2.299551c0-2.299551 1.099785-3.999219 2.299551-5.099004 3.999219 6.29877 10.198008-3.999219 15.396993-2.799453 2.299551 1.099785 2.299551 2.799453 2.299551 3.999219 1.099785 0.599883 2.299551 0.599883 2.799453 1.099785 0-2.299551 1.699668-3.399336 1.099785-6.29877 3.999219 2.299551 6.29877 1.099785 7.998438 2.799453h2.299551l-1.699668-0.599882c2.799453-1.099785 7.398555-2.299551 11.397774-2.799454 1.099785 3.999219 2.299551 7.398555 2.799453 13.097442 1.099785-3.999219 3.999219-6.798672 6.29877-6.29877 1.099785 2.299551-5.099004 5.099004-1.699668 10.198009l-2.799453 1.099785c0 2.799453 0 3.999219-1.099786 5.099004l-2.799453-7.398555c0 6.29877-9.098223 9.098223-17.596563 13.097442l-1.099785 0.599883c-1.699668 1.099785-3.399336 1.699668-5.099004 3.399336-1.099785-2.299551-1.099785-5.099004 1.099785-7.398555-3.999219 1.099785-9.098223 3.999219-14.197227 3.999219 1.099785 2.799453 2.799453-2.299551 6.29877 5.099004-7.398555 2.799453-11.397774 1.099785-16.496778-1.099785 3.999219-3.999219-1.099785-10.198008-2.799454-14.197228-2.299551 0-3.999219 0-6.298769 1.099786h2.799453c-2.299551 3.999219 0 7.998438 1.099785 11.397774-5.698887 6.29877-7.998438-1.099785-17.596563 2.799453-3.999219 1.099785 5.099004-6.29877 5.099004-6.29877 0-2.299551-1.099785-3.999219-1.099785-5.099004-1.099785 1.099785-2.799453 1.099785-5.099004 2.299551l-1.099785-2.299551-1.699669 0.599883c0.599883 0 0.599883 0.599883 0.599883 1.099785 1.099785 0.599883 2.799453 1.099785 3.999219 2.799453-3.999219 3.999219-3.999219 0-3.999219-2.299551v-0.599883c-0.599883 0-0.599883 0-1.099785-0.599882l-1.699668 0.599882c2.299551 2.799453 0 7.998438 1.099785 11.397774-10.797891 0-22.195665 1.099785-32.493653 5.099004-2.299551-3.999219-5.099004-2.299551-2.799454-7.398555l-7.398555 2.799454c-2.299551-5.099004-2.799453-6.29877-5.099004-7.398555-1.099785 0-2.299551 1.099785-2.29955 1.099785-1.099785 2.299551-2.299551 3.999219 0 9.098223-6.798672 2.299551-12.497559-2.799453-17.596564 2.799453-1.099785-3.999219-3.999219-2.299551-7.398555-9.098223 3.999219-1.099785 5.099004 2.299551 5.099004 2.299551 0-2.799453-1.099785-3.999219-2.29955-6.29877h-1.099786c-2.799453 1.099785-3.999219 1.099785-3.999218 2.299551 0 0 0-1.099785-0.599883-1.699668l-0.599883-0.599883c-1.099785-1.099785-2.799453 0-3.999219 2.299551v2.299551h-1.099785c-2.299551-1.099785-2.299551-2.299551-3.999219-2.299551 0 1.099785 0 1.099785-1.099785 2.299551h-1.099786c2.299551 1.099785 7.398555 1.099785 9.098223 6.29877-11.397774 1.099785-23.29545-2.299551-33.593438 2.299551-2.299551-7.398555-3.999219-10.198008-7.398555-9.098223-1.099785 2.299551 0 3.999219 1.099785 5.099004-4.599102-3.999219-8.49834-5.099004-17.596563-2.299551-1.099785-2.799453-2.299551-5.099004-2.299551-7.398555-3.999219-1.099785-9.098223-1.099785-14.197227-2.299551-1.099785 1.099785-1.099785 2.299551-1.099785 3.999219-19.396212 0-37.592658-7.398555-54.689319-12.497559l-1.099785-2.299551c-2.299551 0-2.799453-1.099785-3.999219-1.099785 0 2.299551 0 2.799453 1.099785 5.099004-2.799453-1.099785-6.29877-2.799453-9.098223-3.999219 1.099785-1.099785 2.299551-1.099785 2.299551-2.299551-3.999219-2.299551-7.998438-2.799453-12.497559-3.999219 0.599883 0.599883 0.599883 1.099785 0.599883 1.699668l-0.599883-1.699668c-27.294669-7.998438-53.489553-18.796329-79.684437-32.993556-2.299551-2.799453-5.099004 0-10.198008-1.099785-6.798672-2.799453 5.099004-3.999219 2.799453-7.398555-2.299551-2.799453-5.099004 3.999219-5.099004 3.999219-2.299551-2.799453-15.396993-2.299551-9.098223-11.397774-2.299551-2.799453-2.299551 2.299551-5.099004 3.999219-8.49834-6.29877-21.09588-15.396993-30.194103-21.595782-2.799453-2.799453 2.299551-2.799453-2.29955-7.998438-12.497559-3.999219-31.293888-15.896895-35.293107-26.194884-2.799453 2.799453-5.099004 0-7.998438 2.299551-13.697325-17.196641-25.694981-19.996095-36.992775-38.792423 2.799453-2.799453 5.099004 0 7.998438-2.299551 2.799453-2.299551-3.999219-5.099004-3.999219-5.099004 0 5.099004-2.299551 2.299551-10.198008 3.999219-8.49834-11.397774-25.095099-25.095099-23.895333-35.293107-6.798672-3.999219-5.099004-6.29877-14.197227-12.497559 6.29877-8.49834-9.098223-10.797891-15.396993-23.895333l7.998438-7.398555c-5.099004-5.099004-6.798672-2.799453-10.198008-1.099785-3.999219-6.29877-9.098223-11.397774-1.099786-13.097442-2.799453-2.299551-5.099004 0-7.998437 2.299551-12.497559-21.09588-17.596563-39.292326-28.994337-58.588557 5.099004-5.099004 6.798672-2.299551 10.198008-3.999219 2.299551 2.799453-6.29877 5.099004 0 6.29877 2.799453-2.299551 7.998438 2.799453 13.097442-1.099785-3.999219-1.099785-7.998438-5.099004-14.197227-7.998438 2.799453-6.29877 5.099004-7.998438 2.799453-11.397774-4.599102 3.399336-5.099004 3.999219-3.999219 9.098223 0 1.099785 1.099785 1.099785 1.099785 1.099785-1.099785 0-1.099785 1.099785-1.099785 1.099785-0.599883 0-0.599883-0.599883-0.599883-1.099785-0.599883-0.599883-1.099785-1.099785-1.699668-1.099785-2.799453 2.299551-2.799453 2.299551-1.099785 5.099004-11.997657-9.098223-9.698106-23.895333-18.796329-35.293107l5.099004-3.999219c1.099785-5.099004-5.099004-1.099785-7.398555-2.799453-8.49834-34.193322-12.497559-67.78676-18.796329-104.179652l2.299551-2.299551s-1.099785 0-1.099785-1.099785H9.098223l1.099785-1.099786c-9.098223-6.29877-3.999219-11.397774-7.998438-16.496778 7.498535-5.898848 15.396993-12.197618 23.395431-13.897285z" fill="#040000" p-id="13950"></path><path d="M564.689709 1006.903339c0.599883 6.29877 2.299551 10.198008 7.998438 7.398555 0-1.099785-1.099785-2.799453-1.099785-3.999219 0.499902-0.499902-2.399531-2.19957-6.898653-3.399336zM602.182386 996.705331c-2.299551 0-3.999219 2.299551-2.299551 3.999219l2.299551-2.299551v-1.699668zM502.001953 997.805116c5.099004-3.999219-2.299551-6.798672-3.999219-5.099004l3.999219 5.099004zM360.829525 993.305995c1.099785 2.799453 6.29877-2.299551 7.998438 2.799453-2.299551-1.099785-3.999219-1.099785-7.398555 0 0-1.099785-0.599883-2.299551-0.599883-2.799453zM601.082601 989.306776l-5.099004 3.999219v1.099785c1.099785 1.099785 2.799453-1.099785 6.29877-1.099785V991.006444l-1.199766-1.699668zM635.775825 988.10701c-1.099785 0-2.299551 1.099785-2.799453 2.299551 1.099785 2.299551 2.799453 3.999219 5.099004 2.799453 2.299551-1.099785-0.599883-3.399336-2.299551-5.099004zM599.382933 988.10701c-2.799453-2.799453-6.29877 1.099785-7.398555 3.999219 1.099785 0 1.099785-1.099785 2.299551-1.099785 1.099785-2.299551 1.699668-2.899434 5.099004-2.899434zM652.272603 984.707674c-2.299551-1.099785-2.799453 0-5.099004 2.799454 0.599883 0.599883 0.599883 0.599883 1.099785 0.599882 1.799649-1.699668 2.899434-2.799453 3.999219-3.399336zM700.163249 967.611013c6.798672-2.799453 3.999219 10.198008 9.098223 2.799454-2.299551 5.099004-9.098223 6.798672-6.298769 14.197227-2.799453 2.299551-5.099004-2.299551-6.29877-5.099004 6.898653-4.999024 4.599102-8.998243 3.499316-11.897677zM676.767819 976.709236c-2.299551 5.099004-2.299551 5.099004 2.799453 7.398555-7.998438 0-10.198008-2.799453-11.397774-3.999218l1.099785-0.599883c1.699668-0.599883 3.399336-1.099785 5.698887-2.299551l1.799649-0.499903zM653.472369 975.609451c2.799453-2.299551 7.998438-2.299551 10.198008 1.099785 0 5.198985-5.099004 5.198985-10.198008-1.099785zM716.660027 968.810779c1.099785 2.799453-2.299551 5.099004 2.799454 7.398555-2.299551 3.999219-1.099785-3.999219-2.799454 1.099785l-2.799453-7.398555 2.799453-1.099785zM694.964265 965.411443c0 5.099004 2.299551 7.998438-1.099785 10.198008-1.699668-2.799453-1.099785-7.998438 1.099785-10.198008zM673.968366 969.310682c2.299551-1.099785 2.799453 2.299551 3.999218 3.999218l-5.099004 2.299551c-0.599883-1.699668 5.099004-1.699668 1.099786-6.298769zM372.827182 969.310682c-2.299551-2.799453-5.099004-1.099785-10.198008 3.999218 2.19957 3.399336 7.398555 3.399336 10.198008-3.999218zM703.562585 958.012888c2.799453-2.299551 10.198008 6.29877 2.299551 7.998438-2.899434-2.899434 0.499902-4.599102-2.299551-7.998438zM698.963484 953.413786c5.099004 4.599102 2.299551 6.798672-1.099786 9.098223l-3.999218-5.099004 5.099004-3.999219zM765.550478 928.918571c7.398555-2.299551 5.099004 2.299551 7.998438 1.099785-2.299551 3.999219-1.099785 7.998438 1.099785 10.198008l-7.398555 2.799453c-2.799453-5.498926 4.599102-8.998243-1.699668-14.097246zM844.13513 882.22769c1.099785 2.799453-1.099785 7.998438-3.999219 9.098223l-1.099785-2.799453-7.398555 2.799453c-1.099785-2.799453-1.099785-2.799453 1.099785-7.998438 2.299551-1.599688 6.798672 0.09998 11.397774-1.099785zM849.834017 876.528803c2.299551 0 5.099004 1.099785 5.099004 5.099004-5.099004 5.198985-3.399336-2.799453-5.099004-5.099004zM880.02812 850.933802l2.799453 7.398555c-2.799453 1.099785-7.998438-1.099785-9.098223-3.999219l6.29877-3.399336zM138.272994 828.238235c0.599883-5.099004-9.098223-1.099785-5.099005 3.999219 1.099785-3.999219 4.599102-3.999219 5.099005-3.999219zM907.322789 821.939465c2.299551-5.099004 2.299551 2.799453 2.799453 7.398555l-7.398555 2.799453-2.799453-7.398555 7.398555-2.799453zM907.322789 802.543253c6.798672-2.799453 5.099004 2.299551 9.098223 3.999219-2.299551 3.999219-1.099785 7.998438-3.999219 9.098223l-5.099004-13.097442zM930.618239 773.548916l2.799453 7.398555c-5.099004 6.29877-6.798672 2.799453-6.29877-5.099004l3.499317-2.299551zM55.789104 673.368483c2.299551-0.599883 4.599102-4.599102 6.298769-2.299551-1.799649 1.199766-3.499317 1.699668-6.298769 2.299551zM47.190783 663.070494c-2.799453 2.299551-1.099785 5.099004-1.099785 10.198008 2.299551-2.299551-2.299551-7.998438 2.799453-7.398555l-1.699668-2.799453zM32.393673 634.076157c-2.299551 2.299551-5.099004 3.999219-2.799453 7.398555 4.599102-3.999219 4.599102 1.099785 7.398555-2.299551l-4.599102-5.099004zM986.407342 624.977934c6.29877-2.799453 7.998438-6.798672 13.097442-6.29877 1.099785 2.799453-6.798672 2.799453-1.099785 7.998438-7.998438 0 0 7.998438-7.398555 11.397774-1.099785-2.799453 2.299551-5.099004 1.099785-7.998438 0.599883 0-0.499902-3.399336-5.698887-5.099004z" fill="#040000" p-id="13951"></path><path d="M986.407342 624.977934s6.29877 5.099004-1.099785 7.998438c-2.899434-7.398555 2.299551-5.198985 1.099785-7.998438zM29.59422 622.678383c-2.799453-2.299551-5.099004 0-7.998438 2.299551 0.599883 1.699668 5.099004-1.099785 7.998438-2.299551zM30.694005 612.480375c-2.799453 3.999219-10.797891 5.099004-5.099004 7.398555 2.299551-1.199766 3.999219-5.099004 5.099004-7.398555zM993.805897 598.78305c2.799453-2.299551 7.998438 0 10.198008 3.999219l-7.398554 2.799453c-1.599688-3.899238-2.799453-6.798672-2.799454-6.798672zM27.894552 516.799063c1.099785 2.299551 2.299551 3.999219 0 5.099004-2.299551-2.19957 0-3.899238 0-5.099004zM18.196446 507.70084c1.099785 2.799453-1.099785 7.998438-3.999219 9.098223-5.698887-2.19957-3.399336-7.398555 3.999219-9.098223zM1001.204452 511.700059c-2.299551 3.999219-6.29877 3.999219-2.299551 0h2.299551zM1003.504003 501.50205c0.599883 0.599883 2.299551 1.699668 3.999219 2.799454l0.599883 0.599882c0.599883 0 0.599883 0.599883 0.599883 0.599883l2.799453 3.999219h-4.599102c-1.099785 1.699668-2.799453 2.299551-4.599102 2.299551 1.099785 0 1.099785-1.099785 1.099786-2.299551 3.399336 1.099785 0.599883-3.999219 3.999219-3.999219v-0.599883c-2.299551-1.099785-4.599102 0-6.29877-2.799453 1.299746 0.499902 2.399531-0.599883 2.399531-0.599883z" fill="#040000" p-id="13952"></path><path d="M1017.70123 505.401289c-2.299551 2.799453-3.999219 3.999219-6.29877 3.999219l6.29877-3.999219zM1020.000781 497.502831c0 2.299551 0 5.099004 2.299551 7.398555-1.099785 1.099785-2.299551 1.099785-2.799453 2.299551 1.099785-2.899434-4.599102-5.698887 0.499902-9.698106zM955.713337 277.745753l3.999219 5.099004c0.599883-0.599883 0.599883-0.599883 1.099785-0.599883-1.099785-1.099785 0-2.299551 1.099786-2.299551 0 1.099785 0 1.099785-0.599883 1.699668 2.299551-1.099785 6.29877-1.699668 9.098223-3.399336 3.999219 10.198008 7.998438 21.09588 15.396992 28.994337-2.299551 2.299551 0 5.099004-5.099004 3.999219l3.999219 6.29877c-5.099004 3.999219-5.099004 3.999219-6.298769 9.098223 2.299551-2.299551 5.099004 0 10.198008-3.999219 3.999219 6.29877 1.099785 13.097442 7.998438 16.496778-2.799453 2.299551-1.099785 5.099004-6.29877 9.098223-2.299551-2.799453 1.099785-5.099004 1.099785-5.099004-7.998438 1.099785-9.098223 11.397774-7.398555 14.197227 2.799453-2.799453 7.998438-2.299551 7.998438-2.299551 2.799453 2.799453-2.299551 2.799453 2.299551 7.998438 2.799453-2.299551-1.099785-7.998438 3.999219-12.497559 3.999219 9.698106 5.099004 22.795548 12.497559 31.293888-5.099004 3.999219-7.998438 6.29877-6.29877 9.098223 2.299551 0 2.799453-1.099785 3.999219-2.299551-2.299551 5.698887-2.299551 10.797891 3.999219 17.596563-6.29877 3.999219-7.998438 7.398555-10.198009-1.099785-2.299551 2.299551 0 5.099004-2.799453 7.398555 10.198008 2.299551 3.999219 16.496778 14.197227 12.497559 5.099004 18.196446 2.799453 38.692443 3.999219 56.888889l-5.099004 3.999219c2.799453 2.299551 5.099004 0 7.998438-2.299551-1.099785 2.799453-2.299551 6.798672-2.299551 10.198008-3.999219-3.999219-10.198008 5.099004-14.197227 6.29877 0-1.099785-1.099785-3.999219 1.099785-5.099004-2.299551-2.299551-2.799453 2.299551-7.398555-2.799454 7.998438-2.299551-1.099785-7.998438 3.999219-12.497559-6.29877-14.197227-12.497559-27.294669 1.099785-33.593438 0-5.099004-2.299551-7.998438 1.099785-10.198009-2.299551-2.799453-5.099004 0-10.198008-1.099785-3.999219-10.198008-1.099785-18.196446-5.099004-28.494435 5.099004-5.099004 6.798672-2.299551 10.198008-3.999218-2.299551-2.799453-6.798672-2.799453-10.198008-1.099786-6.29877-7.998438-5.099004-17.596563-7.398555-26.194883 1.099785-2.799453 1.099785-2.799453 1.099785-2.299551V371.127514c1.699668 0.599883 3.399336 1.099785 5.099005 0.599883l-2.299551-2.799453c-1.699668-2.299551-2.799453-0.599883-3.399336 1.099785-1.699668-2.299551-3.999219-3.399336-5.698887-5.099004 7.998438-2.299551-3.999219-6.29877 1.099785-10.198008l-2.799453 2.299551c-7.998438-21.09588-10.797891-42.091779-23.895333-63.787542l5.099004-3.999219c-2.299551-2.799453-5.099004-1.099785-9.098223-6.29877l9.198203-5.198984zM9.698106 470.108182c1.699668 2.299551 6.798672 3.999219 7.398555 6.29877-6.29877 2.799453 1.099785 11.397774-1.099785 16.496778-6.29877 2.299551-9.098223-3.999219-9.098223-4.599102 2.799453-1.099785 3.999219 2.299551 6.298769 2.299551 2.299551-5.099004-1.099785-11.397774-3.999219-10.198008-0.09998-3.399336 0.499902-6.798672 0.499903-10.297989z" fill="#040000" p-id="13953"></path><path d="M502.001953 0l2.299551 7.398555c3.999219 2.299551 2.299551-5.099004 5.099004-6.29877 35.293107 1.099785 68.886546 7.398555 104.779535 11.397774l2.799453 7.398555c8.49834-7.398555 10.797891 0 17.596563-2.799453 3.999219 10.198008 7.998438 19.896114 7.398555 28.494434-1.099785 0-2.299551 1.099785-2.799453 1.099786 2.299551-2.299551-2.799453-7.398555 0-7.998438-3.999219-2.299551-6.29877 2.799453-5.099004 6.29877-43.291545-10.198008-84.783441-19.396212-136.573326-14.197227l-2.29955-7.398555c-2.799453 1.099785 2.299551 2.799453-5.099004 6.298769-2.299551-2.799453-2.299551-2.799453-5.099005-2.299551-1.099785-3.999219 2.299551-5.099004 2.299551-5.099004l-5.099004-1.099785c-0.599883 0.599883-0.599883 1.099785-0.599883 1.699668v0.599883-0.599883c0-0.599883 0-1.099785 0.599883-1.099785l-0.599883 0.599883c1.099785-2.299551 1.699668-3.999219 2.799454-4.599102 0 0-2.299551-1.099785-2.799454-2.299551l-2.799453-2.799453-6.29877 2.299551c9.098223 3.999219-1.099785 7.998438 7.398555 9.098223-2.799453 2.299551-2.299551 5.099004-2.299551 5.099004-11.397774 1.099785-18.796329 0-33.593438 2.299551-1.099785-2.799453-2.799453-6.29877-6.29877-5.099004-1.099785-2.799453 3.999219-1.099785 1.099785-7.998438-2.799453 1.099785 2.299551 2.799453-5.099004 6.29877 1.099785 2.799453 5.099004 2.299551 6.29877 5.099004-1.699668-1.099785-2.799453-1.099785-4.599102-1.099785v-0.599883h-1.699668c0.599883 0 1.099785-0.599883 1.699668-0.599883l-2.299551-5.698887-6.29877 2.799453c0.599883 1.099785 1.699668 2.299551 2.799454 2.799453-1.099785 0.599883-2.799453 1.099785-3.999219 1.699669l-2.799454-7.398555v0.499902c2.799453 9.098223-17.096661 10.198008-22.795547 8.49834h-0.599883c-5.099004 6.29877-17.096661 2.799453-28.994337 12.497559-1.099785-2.799453-2.799453 2.299551-6.29877-5.099004-2.799453 2.299551-2.299551 5.099004-2.299551 5.099004-27.294669 7.998438-51.789885 19.896114-74.585432 31.293888 0-1.099785 1.099785-2.799453 0-5.099004-3.999219-1.099785-2.299551 2.799453-2.799454 7.398555-14.197227 6.798672-27.894552 12.497559-40.39211 17.596563-2.299551 5.099004 5.099004 2.299551 2.799453 7.398555-43.291545 25.595001-68.886546 59.18844-105.879321 89.382543-5.698887 17.096661-23.29545 29.59422-32.493653 47.290763 0-1.699668-1.099785-4.599102-2.799453-8.49834-2.799453 2.299551-5.099004 6.29877 1.099785 11.397774 0.599883 0 1.099785-0.599883 1.099785-0.599883-2.299551 3.399336-2.799453 7.998438-3.999219 11.997657-9.098223 3.999219-2.799453 9.098223-10.198008 12.497559-2.299551 5.099004-3.999219 9.098223-6.29877 14.197227-7.998438 7.398555-10.797891 18.796329-17.596563 30.194103-3.999219 9.698106-7.998438 18.796329-7.398555 30.194102l-7.398555 2.799453c5.099004 13.697325-11.397774 19.896114-7.398555 30.194103l-7.398555 2.799453 3.999219 10.198009c-11.197813 26.294864-13.997266 55.289201-15.696934 83.783636l-0.599883 7.398555c-3.999219 1.099785-5.099004-2.299551-5.099004-2.299551-3.999219 1.099785 2.299551 7.398555-1.099785 7.998438 1.099785 2.799453 2.799453-2.299551 6.298769 5.099004-6.29877 2.299551-9.098223-3.999219-12.497559-2.799454-1.099785-2.799453 2.299551-5.099004 1.099785-7.998437 7.998438 1.099785 2.299551-5.099004 5.099005-6.29877l-5.099005-2.299551c-2.799453 2.299551 2.799453 6.798672-2.29955 5.099004 2.299551-3.999219-3.999219-2.799453-5.698887-4.599102v2.799454c-0.599883-0.599883-0.599883-1.699668 0-2.799454l0.599882 0.599883c0.599883-6.29877 0.599883-12.497559 0-17.596563l2.799454 6.798672v-1.099785c0.599883-4.599102 0-6.798672-2.799454-6.29877v-3.999219l10.198009-3.999219-0.599883-1.099785c-2.299551-5.698887-0.599883-10.198008-1.699668-13.097442-10.198008-3.999219 1.099785 3.999219-7.398555 2.799453 2.299551-3.999219-2.799453-6.29877-1.699668-10.797891 0 0 2.799453-2.299551 5.099004-6.298769s-1.099785-2.799453 3.999219-9.098223c1.699668-3.399336-0.599883-9.698106-1.099785-10.797891-2.299551-2.799453 5.099004-6.29877 5.099004-6.29877l-2.799454-6.29877c-1.099785-2.799453 5.099004-6.29877 3.999219-9.098223 0-2.299551-1.099785-3.999219-1.099785-3.999219 1.099785 0 2.299551 0 2.799453-1.099785 2.299551-1.099785 0-5.099004-2.29955-7.398555 2.799453-1.099785 3.999219 2.299551 5.099004 5.099004 3.999219-1.099785-1.099785-2.799453 5.099004-6.29877-1.099785-2.799453-7.998438-1.099785-9.098223-3.999219 25.595001-71.685999 59.788323-139.472759 120.076547-196.961531 2.799453-1.099785 2.299551-3.999219 3.999219-9.098223 5.099004-6.29877 2.799453 6.798672 6.29877 5.099005 2.799453-2.299551-2.799453-7.398555-2.799453-7.398555 2.799453-1.099785 6.29877-14.197227 13.097442-5.099004 2.799453-2.299551-2.299551-3.999219-2.799454-7.398555 8.49834-6.798672 19.896114-15.896895 28.994337-22.795548 2.799453-1.099785 1.099785 3.999219 7.998438 1.099785 6.798672-10.797891 23.895333-25.095099 35.293107-26.194884-1.099785-2.799453 2.299551-5.099004 1.099785-7.998438 20.495997-7.398555 27.294669-17.596563 48.390549-22.795547 1.099785 2.799453-2.299551 5.099004-1.099785 7.998437 2.299551 2.799453 7.398555-2.799453 7.398555-2.799453-5.099004-2.299551-2.299551-2.799453-1.099785-11.397774 13.097442-6.29877 32.493654-17.596563 41.591876-13.097442 5.099004-6.29877 6.29877-2.799453 15.396993-10.198008 7.998438 9.098223 13.697325-5.099004 28.494435-7.398555l3.999219 10.198008c7.398555-2.299551 5.099004-6.29877 3.999218-9.098223 6.29877-2.299551 13.097442-5.099004 12.497559 2.799454 2.799453-1.099785 2.299551-3.999219 0-7.398555 23.895333-6.29877 43.291545-6.29877 64.287444-11.397774 2.799453 6.29877 0 7.998438 1.099786 11.397774h-2.299551c-2.299551 1.099785-3.999219 2.799453-3.999219 2.799453v-1.099785c-1.099785 2.299551-2.299551 3.999219-1.099785 7.998438 1.099785-3.999219 6.29877-7.398555 11.397773-11.397774h2.299551c-1.099785 0-1.099785 1.099785-1.699668 0.599883 4.599102 3.399336 6.798672 6.798672 9.698106 5.698886-2.799453-6.29877-2.799453-6.29877-9.098223-7.398555 1.099785 0 2.299551 0 2.299551-1.099785-1.499707-2.599492-1.499707-2.599492-5.498926-1.999609 13.697325-10.897872 27.894552-4.599102 40.991994-9.698106z" fill="#040000" p-id="13954"></path><path d="M16.496778 446.812732c-2.799453 1.099785 2.799453 6.29877-3.999219 9.098223l7.398555-2.299551-3.399336-6.798672zM19.896114 441.113845c1.699668 3.399336 6.29877 5.099004 3.999219 10.198008 7.398555-3.399336-3.999219-10.198008-3.999219-10.198008zM1002.404218 418.318297c-2.799453 2.299551 0 5.099004-1.099785 10.198008l5.099004-5.099004-3.999219-5.099004zM989.906659 387.024409c-1.699668-2.799453-1.699668-2.799453-5.099004-1.099785 3.999219 5.099004 10.198008 1.099785 9.098223 6.29877l6.29877-3.999219c-1.799649-2.899434-8.098418 2.19957-10.297989-1.199766zM48.390549 352.931068l-7.398555 2.799453c3.399336 6.29877 7.998438 0 7.398555-2.799453zM971.11033 318.737747c-2.299551 2.799453 0 5.099004 2.299551 7.998437 2.799453-2.299551 1.099785-5.099004 2.799453-7.398555 0 0.499902-2.899434 2.19957-5.099004-0.599882zM977.309119 295.942199c-6.29877 5.099004-14.197227 6.29877-12.497559 14.197227 6.29877-3.899238 18.796329-5.598906 12.497559-14.197227zM963.711775 274.9463c5.099004 2.299551 0 2.799453-2.299551 5.099004 1.699668-1.699668 0.599883-2.899434 2.299551-5.099004zM958.51279 255.550088c7.398555 2.799453 1.099785 7.998438 7.998438 16.496778 2.299551 2.799453-7.398555-2.799453-6.798672-3.999219-4.599102 3.999219-9.698106 3.999219-12.497559 6.29877-9.098223-16.496778-2.799453-2.299551 5.099004-3.999219-2.299551-2.299551-2.299551-6.798672-3.999219-10.198008 5.099004-0.599883 7.398555-2.299551 10.198008-4.599102zM915.321226 203.760203c0.599883 1.099785 0.599883 1.699668 0.599883 2.299551 2.299551-1.099785 5.099004 2.799453 9.098223 0l2.299551 2.299551c2.299551-1.099785 3.999219-1.099785 5.099004 0l-5.099004 3.999219c6.29877-1.099785 11.397774 7.398555 17.596563 13.097442-1.099785 0-2.299551 1.099785-2.299551 2.299551l2.799454-2.299551c2.299551 2.299551 3.999219 3.999219 6.298769 5.099004-2.299551 2.299551-5.099004 2.299551-7.398555 1.099785 2.299551 2.799453 7.398555 7.998438 7.998438 12.497559 2.299551-2.299551-2.299551-2.799453 2.799453-7.398555 3.999219 5.099004 3.999219 10.198008 2.799454 15.396993-6.798672-3.999219-10.797891 8.49834-16.496778 7.998438l-9.098223-11.397774c2.799453-2.299551 5.099004-5.099004 2.299551-6.29877-2.299551-2.799453-2.299551 2.299551-5.099005 3.999219-1.699668-2.799453-2.299551-7.998438-1.099785-12.497559-2.799453 1.099785-4.599102-0.599883-7.398555 1.099785 0-3.999219-1.099785-7.398555 0-9.098223l0.599883 0.599883c-0.599883-0.599883-0.599883-1.099785-0.599883-1.699668-1.099785 0-1.099785 1.099785-1.099785 1.099785-2.799453-2.799453-5.099004-6.29877-7.398555-10.198008h1.099785c2.799453-2.299551 5.099004-3.999219 7.998438-6.29877-3.999219 0-6.798672-1.099785-6.798672-3.399336v1.099785c0.599883 3.999219-0.599883 6.29877-0.599883 6.798672-1.099785-2.299551-2.299551-5.099004-5.099004-7.398555 4.999024 2.299551 4.999024 2.299551 6.198789-2.799453z" fill="#040000" p-id="13955"></path><path d="M924.919352 229.955087c0.599883 2.299551 1.099785 2.299551 4.599101 3.399336-1.699668-1.099785-2.799453-2.299551-4.599101-3.399336zM907.322789 208.359305l2.799453 3.999219c-1.099785 1.099785-2.799453-3.999219-5.099004 1.099785-1.699668-1.699668 0.599883-3.999219 2.299551-5.099004zM895.325132 178.665104c5.099004 1.099785 10.198008 6.29877 15.396993 2.299551 2.299551 2.799453 0 5.099004-2.799454 7.398555-7.998438-2.799453-10.198008-1.099785-13.097442 1.099786-5.698887-6.198789 7.398555-7.298574 0.499903-10.797892zM896.524897 167.867213c5.099004 1.099785-2.799453 2.299551 2.299551 2.799454l-5.099004 3.999219-2.299551-2.799454c1.699668-1.699668 3.899238 1.199766 5.099004-3.999219zM847.534466 126.375317l3.999219 5.099004c-5.099004 3.999219-10.198008-1.099785-13.097442 6.29877-5.099004-6.29877 0-5.099004-1.099785-7.398555 5.099004 0.499902 7.398555-1.799649 10.198008-3.999219zM461.909783 917.220855c-1.199766 0-2.499512 0-3.099394 1.199766l1.199765 2.499512c0.699863-1.899629 1.899629-3.099395 1.899629-3.699278zM410.219879 912.921695c-1.199766-1.199766-2.499512 0-4.29916 0v1.799648l4.29916-1.799648zM921.719977 424.817028z" fill="#040000" p-id="13956"></path><path d="M934.017575 559.490724c9.798086-12.897481 5.498926-23.395431 8.59832-31.393868l-0.599883 0.599883s0-0.599883-0.599882-0.599883c-3.099395 1.799649-7.398555-3.099395-4.299161-5.498926 0 0 2.499512 3.699277 5.498926 1.199766l-5.498926-7.998438c-1.799649 2.499512-5.498926 4.29916-9.798086 0 1.199766-29.494239 0-59.588362-5.498926-90.98223-7.998438 3.099395-4.29916 9.798086-18.396407 8.598321 3.099395 18.396407 4.29916 36.892794 5.498926 54.689318-1.199766 26.394845 0 71.88596-3.099395 94.681508 3.699277 11.097832 11.697715 19.696153 9.198204 25.195079-1.199766-3.099395-9.198203-1.199766-12.297598 1.199765-12.297598 42.991603-27.094708 77.484866-50.390158 112.478032l1.199765 3.099395c-11.697715 1.199766-15.396993 14.79711-19.09627 23.995313-16.596758 11.097832-27.094708 35.693029-46.690881 47.990627 0.599883 3.699277 6.098809 5.498926 3.099395 7.998438-5.498926-2.499512-19.696153 11.697715-17.796524 19.09627-3.699277 1.199766-1.199766-12.297598-6.798672-5.498926-5.498926 6.798672-19.696153 12.297598-23.995314 22.095684-3.099395-7.398555-7.398555 3.699277-9.798086 7.998438-18.396407 3.099395-34.993165 21.495802-60.288225 28.294474l-3.099395 0.599883c-16.596758 6.798672-30.694005 9.198203-39.292325 17.796524-0.599883 0-1.799649 1.199766-3.099395 1.199766l-2.499512-5.498926c-7.398555 3.099395-14.097247 5.498926-19.09627 3.099394-3.099395 3.099395-4.29916 6.098809-4.29916 8.598321h-2.499512c0-2.499512 0-4.29916-1.199766-6.798672-12.297598 1.199766-15.396993 2.499512-23.995313 1.199765 0.599883 3.699277 6.098809 5.498926 3.099394 7.998438-6.798672-5.498926-13.497364-3.099395-22.095684-3.099394 0.599883 3.699277 5.498926 5.498926 3.099395 6.798672h-2.499512c1.199766-0.599883 1.199766-1.799649 0-3.099395-12.297598 0.599883-19.696153 3.099395-28.294474 3.099395-1.199766 0-1.199766 1.199766-1.199766 2.499511h-2.499511v-1.199765c-2.499512 0-4.29916 0-5.498926 1.199765h-8.598321c-11.097832 0-23.395431 0-33.7934-3.099394v2.499512c-3.099395 0-5.498926-1.199766-9.798086-1.199766-4.899043-3.099395-9.198203-1.799649-13.497364 1.199766-7.998438-8.598321-19.09627-4.29916-29.494239-11.097833-1.799649 2.499512-3.099395 4.29916-4.299161 5.498926-2.499512 0-4.29916-1.199766-6.798672-1.199765 0.599883 0 1.799649-1.199766 3.099395-2.499512-39.292326-12.297598-75.585237-18.396407-112.478032-47.990627-5.498926-1.199766-12.897481-10.49795-20.296036-7.998438 3.699277-2.499512 3.699277-2.499512 1.199766-5.498926-15.396993-7.998438-29.494239-30.094122-46.090998-32.593634-3.099395-5.498926-25.794962-27.694591-32.593634-33.193517l2.499512 6.798672c-4.899043-4.29916-10.49795-8.598321-13.497364-14.097246-3.099395 2.499512-3.099395 7.998438-3.099395 7.998437-1.199766-0.599883-1.199766-1.799649-2.499511-3.099394L184.06405 774.048819c1.799649 3.699277 7.398555 9.198203 9.798086 6.798672-3.699277 7.998438 14.097247 19.09627 19.096271 23.995313 3.099395-2.499512 5.498926-4.899043 8.59832-2.499512 4.899043 5.498926-8.598321 2.499512-3.099394 7.998438 3.699277-1.799649 5.498926-4.29916 11.097832 1.199766-0.599883 11.097832 14.79711 23.395431 23.995313 29.494239 5.498926-4.899043 0.599883-5.498926 3.099395-7.998438 4.899043 5.498926 5.498926 0.599883 7.998438 3.099395-8.598321 7.998438 1.799649 3.699277-0.599883 10.49795v0.599883c12.297598 20.296036 28.294474 16.596758 40.592072 31.393868 3.099395-2.499512 5.498926 0.599883 8.598321-2.499512 6.098809 4.29916 12.897481 7.998438 19.09627 11.097833-2.499512 1.199766-4.899043 3.099395-7.998438 4.29916 9.798086 13.497364 22.095684 12.297598 28.294474 17.796524 2.499512-1.199766 2.499512-3.099395 2.499512-4.29916 1.199766 3.699277-0.599883 7.998438 2.499511 6.798672-0.599883-3.099395 5.498926-6.098809 7.998438-3.099395 0 0-3.699277 1.199766-2.499512 5.498926l6.798672-3.099395v1.799649c1.199766 0 3.699277-1.799649 2.499512-4.29916-0.599883 0.599883-1.199766 0.599883-1.799648 1.199765-0.599883-1.199766-1.199766-2.499512-0.599883-3.699277-0.599883 0.599883-1.199766 0.599883-2.499512 0.599883l-1.199766-3.099395c0.599883 0 2.499512 0.599883 3.699278 1.199766 0.599883-0.599883 0.599883-1.199766 1.799648-2.499512 3.699277 0.599883 7.998438 1.799649 11.097833 3.099395 0 0-1.199766 0-1.199766 1.199765 3.699277 7.998438 5.498926 2.499512 6.798672 5.498926l0.599883-0.599883c1.199766-0.599883 1.799649-0.599883 1.799649-1.199765v-0.599883c0 1.199766 0 1.799649 2.499512 4.29916 3.699277-1.199766 4.899043 1.799649 7.998437 1.199766 5.498926 2.499512 12.897481 3.099395 18.396407 5.498926-3.699277-7.998438-5.498926-2.499512-6.798672-5.498926l7.998438-3.099395c3.699277 7.398555 6.798672 5.498926 7.998438 9.798087 2.499512-0.599883 2.499512-1.799649 2.499512-3.099395l1.199765 1.199766c1.199766 0 1.199766-1.199766 2.499512-1.199766 3.699277 2.499512 7.998438 4.29916 11.097833 5.498926 4.899043 5.498926 14.79711-1.199766 19.09627 4.29916 2.499512-1.199766 4.29916-5.498926 6.798672-7.998438-2.499512 4.29916 0.599883 3.699277 3.099395 6.798673 7.998438-3.699277 9.198203 1.199766 12.297598-1.199766V924.019527c1.799649 0 3.099395 0.599883 3.099394 3.099395 2.499512-1.199766 3.099395-2.499512 5.498926-2.499512 0 2.499512 1.199766 4.29916 2.499512 5.498926 3.699277-1.199766 12.297598-1.199766 17.796524 1.199766 7.998438-3.699277 2.499512-5.498926 5.498926-6.798672 3.699277 7.998438 5.498926 2.499512 6.798672 5.498926 24.595196-6.798672 55.989065-4.29916 81.784027-12.297598l1.199766 1.199765c5.498926-2.499512 11.097832-3.099395 17.796524-5.498926 2.499512 2.499512 4.29916 3.699277 6.798672 2.499512 2.499512-1.199766 2.499512-1.799649 2.499512-4.29916 1.199766 0 1.799649-1.199766 4.29916-1.199766l1.199766 3.099395c7.398555-3.699277 17.196641-7.998438 25.794962-6.798672 14.097247-5.498926 30.094122-16.596758 52.289787-24.595197 5.498926-6.798672 22.095684-9.198203 22.095684-17.796524 0 0 1.199766 3.699277 5.498926 2.499512 22.095684-17.196641 49.190393-32.593634 61.487991-53.489553 7.398555-3.099395 19.09627-12.297598 20.296036-20.296036 0 0 1.199766 3.699277 5.498926 2.499512 9.798086-16.596758 28.294474-32.593634 33.793399-51.589924-1.199766-3.699277-7.998438 3.099395-5.498926-2.499511h1.199766c7.398555 0.599883 8.598321-6.798672 7.398555-11.097833v-0.599883l3.099395 7.398555c3.699277-1.199766-1.199766-12.297598 11.097832-13.497364 0 0-5.498926-2.499512-3.099394-7.998437 9.798086 4.899043 3.099395-12.897481 15.396992-14.097247l-3.099394-7.998438c11.097832-12.897481 11.097832-33.193517 23.39543-46.690881-5.498926-14.79711 5.498926-19.09627 1.199766-29.494239l7.998438-3.099395c-4.899043-6.798672-0.599883-16.596758-10.49795-20.895918 8.598321 1.199766 11.097832-4.29916 5.498926-27.094708 0-4.899043 1.199766-9.198203 1.199766-13.497364 2.09959 2.399531 4.499121 3.599297 7.598516 6.698691z" fill="#040000" p-id="13957"></path><path d="M931.518063 515.799258c1.199766 2.499512 3.099395 1.199766 5.498926 0-1.199766-1.199766-2.399531-2.499512-5.498926 0zM408.42023 905.52314c-1.199766 2.499512-1.199766 4.29916-1.199765 5.498926 1.199766 0 1.199766-1.799649 2.499512-1.199766-0.699863-1.199766-1.299746-3.699277-1.299747-4.29916zM671.568834 896.324937c-1.199766-1.199766-4.29916 1.199766-6.798672 1.199765 0 0 1.199766 0 1.199766 1.199766 2.499512 0 4.29916-1.199766 5.598906-2.399531zM350.631517 895.125171l1.199766 2.499512c2.499512 0 2.499512 0 2.499512-1.199766-1.199766-0.09998-2.499512-1.299746-3.699278-1.299746zM667.169693 877.828549c-0.599883 0.599883-3.099395 2.499512-2.499511 5.498926 3.199375-2.399531 2.499512-5.498926 2.499511-5.498926zM719.459481 874.229252c-3.099395 2.499512 1.799649 4.29916 3.099394 7.398555l-3.099394-7.398555zM273.746534 842.835384c-2.499512-3.099395-5.498926 4.29916-5.498926 4.29916l5.498926-4.29916zM215.357938 791.24546c-2.499512 0-4.29916 0-6.798672 1.199766 5.498926 1.199766 7.998438 8.598321 12.897481 3.099394l-3.099395-3.099394-2.499512 1.199765-0.499902-2.399531zM188.36321 750.053505l9.798087 12.297598c-3.099395 0-5.498926 2.499512-6.798673 4.299161-2.499512-1.199766-3.099395 3.099395-5.498926 5.498926l-9.798086-12.297599c3.099395-2.499512 5.498926 0 11.097833 1.199766 2.999414-2.399531-2.499512-9.198203 1.199765-10.997852z" fill="#040000" p-id="13958"></path><path d="M192.062488 766.650264l2.499512 3.099394-2.499512 2.499512c-1.299746-2.599492-1.299746-4.399141 0-5.598906zM145.97149 691.564929c1.199766 0 1.199766 1.199766 2.499512 2.499512-0.599883-0.599883-1.199766-0.599883-1.799649-0.599883 5.498926 7.398555 5.498926 12.897481 12.297598 20.296036v0.599882c-1.799649 0.599883-4.29916-5.498926-9.198203-6.798672l-3.099395 2.499512c-1.199766 5.498926 8.598321 11.697715 12.897481 4.899043 1.199766 5.498926 11.697715 14.79711 8.598321 22.095685 8.598321-2.499512 7.998438 8.598321 9.798086 12.297598-2.499512 2.499512-2.499512-3.099395-5.498926 4.29916l-4.899043-5.498926 5.498926-4.29916c-4.29916-6.798672-7.998438-3.099395-13.497364-4.29916-6.098809-14.79711-11.697715-20.296036-20.296036-38.09256l7.398555-7.398555c-3.099395 0-5.498926 3.699277-9.198203-0.599883 2.899434-3.099395 4.799063-1.199766 8.49834-1.899629zM858.432337 750.653388c-1.199766-3.099395-1.199766-12.297598-6.798672-5.498926 2.499512 3.599297 4.29916 10.397969 6.798672 5.498926zM883.627417 707.561804c-4.29916 2.499512-2.499512 5.498926-7.998438 3.099395 1.199766 3.099395 8.598321 0 11.097832 4.29916l-3.099394-7.398555zM890.925991 696.563952c-3.099395 1.199766-1.199766 8.598321-4.29916 9.798087l7.998438-2.499512-3.699278-7.298575zM116.477251 604.281976c7.998438 8.598321 8.598321 17.796524 3.099394 22.095685-3.099395-3.099395 2.499512-3.099395-2.499512-8.598321-3.099395 2.499512 0 5.498926-1.199765 11.097832 2.499512 3.099395 5.498926-4.29916 5.498926-4.29916 4.29916 11.697715 14.097247 23.995313 7.998437 33.7934 11.097832 1.199766 6.798672 8.598321 14.097247 17.796524l-12.297598 9.798086c-8.598321-3.099395-2.499512-7.998438-7.998438-8.59832 5.498926 1.199766 3.099395-2.499512 9.798087-6.098809-1.199766-8.598321-20.895919-15.396993-11.097833-17.796524-4.29916 0-13.497364-7.998438-7.998438-12.297598 0 0-3.099395 2.499512-5.498926-1.199766 3.099395-7.998438-1.199766-19.696153-8.59832-23.395431l5.498926-4.29916c3.099395-2.499512 3.099395-2.499512 1.199765-5.498926 1.299746 0 6.898653 0 9.998048-2.499512z" fill="#040000" p-id="13959"></path><path d="M112.07811 612.280414c-1.199766-1.199766-3.099395 0-4.299161 1.199766l3.099395 4.29916c4.29916-1.799649 1.199766-4.899043 1.199766-5.498926zM102.280023 486.904901v20.296036c1.199766 1.199766 1.199766 2.499512 1.199766 3.099395 0 1.199766-1.199766 2.499512-1.199766 2.499512v1.199765c1.199766 0 1.199766 0 2.499512 1.199766 2.499512 2.499512 0 5.498926 4.299161 11.097833 0 5.498926-5.498926 4.29916-3.099395 7.998437-1.199766 1.199766-2.499512 1.199766-3.099395 1.199766 0 2.499512 0 3.099395-1.199765 5.498926-2.499512 1.199766-3.099395-1.199766-5.498926-1.199766 0.599883 1.199766 0.599883 2.499512 0.599882 3.099395 2.499512 3.099395 4.29916 4.899043 9.198204 6.098809-1.199766 5.498926-1.199766 11.097832 3.099395 16.596758-3.099395 2.499512-5.498926 0-11.097833-1.199765v3.099394h1.199766l2.499512 4.299161c0-1.199766 1.199766-1.199766 2.499511-1.199766-1.199766 5.498926 3.099395 12.297598-2.499511 16.596758 7.998438 3.099395 14.097247-1.199766 13.497363 4.299161l-5.498926 4.29916-4.29916-5.498926c-8.598321 2.499512-1.199766 5.498926-5.498926 9.798086-4.29916-5.498926-2.499512-8.598321-6.798672-14.097246 7.398555-1.199766 5.498926-4.29916 5.498926-4.299161l-1.199766-1.199765c-1.199766 2.499512-2.499512 3.099395-3.099394 3.099394 1.199766-2.499512 1.199766-3.099395 1.199765-5.498926-3.099395-5.498926 1.199766-11.097832-2.499512-15.396992l-6.798672 2.499511c-8.598321-30.694005-3.099395-58.388596-4.29916-81.784026 4.29916-1.199766 6.798672-2.499512 8.598321-3.099395l-3.099395-7.998438 4.29916-2.499511c-1.199766 0-2.499512 0-3.099394-1.199766C91.682093 466.108963 91.082211 463.109549 91.082211 463.109549l11.097832-4.29916c1.199766 2.499512 1.199766 4.29916 1.199766 5.498926l-1.099786 22.595586z" fill="#040000" p-id="13960"></path><path d="M100.480375 576.087483l-2.499512 2.499512c-1.199766 1.199766-1.199766 1.199766-1.199766 2.499512 2.999414-0.09998 3.699277-2.599492 3.699278-4.999024zM99.780512 552.692052c-1.199766 2.499512-3.099395 2.499512-5.498926 2.499512v1.199766c-2.499512 1.199766-2.499512 3.099395-2.499512 4.29916 3.099395-1.899629 8.698301 0.599883 7.998438-7.998438zM93.08182 539.194689h-1.199766l-3.099394 1.199765c-1.199766 3.099395 1.199766 6.798672 3.099394 9.798087 0 0 0-2.499512-2.499512-4.299161 3.699277 0.599883 4.29916 1.199766 4.899044-3.099394-0.599883 0.599883-1.199766 0.599883-1.799649 0.599882-1.899629-1.799649 0.599883-1.799649 0.599883-4.199179zM926.019137 539.194689v5.498926l2.499512-3.099395c0.599883-2.399531-1.299746-2.399531-2.499512-2.399531zM930.318297 519.498535c-1.199766-3.099395-2.499512-3.099395-3.099394-2.499511v5.498926l3.099394-2.999415zM103.479789 450.012107c-0.599883 0.599883-0.599883 0.599883-0.599883 1.199766l1.199766 1.199765c0 4.29916 2.499512 6.798672 0 8.598321v-3.699277c-1.199766-2.499512-1.199766-2.499512-1.199766-3.099395l-3.099394-4.29916c0 0.09998 3.699277 0.09998 3.699277 0.09998z" fill="#040000" p-id="13961"></path><path d="M348.132005 121.176333l2.499512 3.699277c1.799649-0.599883 2.499512 0 3.099395 1.199766l-3.099395 2.499512c1.199766 0.599883 2.499512 2.499512 3.099395 3.099394-19.09627 6.098809-36.892794 22.695567-52.289787 24.595197-6.798672 15.396993-33.7934 21.495802-44.891232 34.993165-4.29916 1.199766-4.29916 1.199766-5.498926-2.499512 0 7.998438-11.097832 12.297598-13.497364 17.796524-38.09256 28.294474-54.689318 58.988479-78.684632 94.081625-3.099395-7.998438 0-8.598321 1.199766-17.796524-2.499512-2.499512-3.699277 1.199766-6.798673 3.099395 3.099395 11.097832-1.799649 13.497364 5.498926 22.695567-9.198203 7.398555-8.598321 19.09627-19.09627 23.995313 3.099395 7.398555 1.199766 12.297598-6.798672 15.396993 0 0-1.199766 0-3.099395 1.199766 0 3.099395 1.199766 6.798672 5.498926 6.798672-18.396407 29.494239-19.09627 62.087873-30.694005 91.582113-3.099395-1.799649-7.398555 3.699277-7.398555 3.699277-3.099395-7.398555 4.29916-9.198203 0-15.996875 1.199766-3.099395 2.499512 1.199766 2.499512 4.29916 0-3.099395 2.499512-6.798672 7.998438-8.598321l-1.199766-3.099394c-2.499512-3.099395-4.29916 2.499512-7.998438 3.099394-3.099395-6.798672 4.29916-9.798086-2.499511-15.396993 6.798672-3.099395 2.499512-13.497364 10.497949-16.596758l-3.099394-7.998438c3.099395-1.199766 1.199766 4.29916 8.59832 1.199766-11.097832-7.398555 3.099395-12.897481-1.199765-23.995314 7.398555 0 3.099395-23.395431 11.097832-13.497363 3.099395-1.199766-3.099395-7.398555-4.29916-11.097833 6.798672-3.099395 2.499512-13.497364 9.798086-16.596758 5.498926 2.499512 3.099395 7.398555 4.29916 11.097832l-3.099394 1.199766c1.199766 2.499512 1.199766 5.498926 1.199765 8.598321 1.199766-3.099395 4.29916-5.498926 2.499512-11.097833 6.798672-3.099395 7.998438-11.097832 3.099395-22.095684 3.099395-1.199766 6.798672-3.099395 5.498926-6.798673l7.998438-3.099394c3.099395-2.499512-2.499512-4.29916-3.099395-7.998438 3.099395-1.199766 1.199766 4.29916 8.598321 1.199766-1.199766-3.099395-3.099395 2.499512-6.798672-5.498926 3.099395-1.199766 1.199766-8.598321 4.29916-9.798087 0.599883 1.199766 1.199766 2.499512 1.199765 3.099395 13.497364-25.195079 32.593634-48.59051 55.989065-71.286077-1.199766-3.099395 2.499512-5.498926 1.199766-8.598321 19.09627-7.398555 19.09627-23.995313 42.39172-29.494239l3.699278 8.598321c3.099395-1.799649-1.799649-6.798672-3.099395-7.398555l0.599883 0.599883c5.498926 4.29916 4.899043-6.098809 8.59832 3.099394l0.599883 1.199766c3.099395-1.199766-2.499512-3.099395 5.498926-6.798672-1.199766-3.099395-3.099395 2.499512-6.798672-5.498926 9.798086-7.998438 25.794962-19.09627 36.292912-14.097247 7.998438-2.499512 5.498926-6.798672 4.29916-9.798086 7.398555-3.099395-1.199766 8.598321 6.798672 5.498926 4.29916-1.199766 2.499512-5.498926 1.199766-8.598321 6.098809-3.099395 21.495802-17.796524 28.294474-12.297598-1.499707-5.498926 5.898848-9.198203 9.498144-9.798086z" fill="#040000" p-id="13962"></path><path d="M322.936926 135.273579c-2.499512 4.29916-10.49795 4.29916-7.998437 12.297599 6.798672-3.099395 9.298184-8.598321 7.998437-12.297599zM685.666081 129.774653c1.199766 2.499512 7.398555-3.099395 6.798672 2.499512-5.498926 0-2.499512 3.099395-6.798672 5.498926-1.899629-6.798672 1.199766-5.598906 0-7.998438zM364.728764 114.977543c1.199766 2.499512-1.799649 4.29916-4.29916 9.798087 1.199766 3.099395 8.598321 1.199766 9.798086 4.29916l-14.097247 5.498926c0-4.29916-1.199766-6.798672-2.499512-7.998438 2.499512-1.199766-2.499512-3.099395-3.099394-6.798672 0.09998 0.09998 14.197227-4.799063 14.197227-4.799063zM682.566686 126.675259c-1.199766 4.29916 0 6.798672-3.099394 7.998438-4.29916-1.199766-7.998438 0-7.398555-3.699278l5.498926-2.499512 4.999023-1.799648zM647.573521 111.978129c9.198203-4.899043 17.796524 13.497364 20.296036 4.299161 3.099395 7.998438 1.199766 12.297598-1.199766 17.796524-2.499512-7.998438-9.798086-4.29916-13.497364-3.099395-1.199766-3.099395 1.199766-8.598321 4.299161-9.798086-1.799649-2.499512-5.498926-4.899043-9.798087-6.798672l3.699278 8.59832-4.299161 1.799649c-1.799649-3.099395-0.599883-7.998438 0-11.697716-0.599883-0.599883-0.599883-0.599883-1.199765-0.599882 1.099785 0.09998 1.099785-0.499902 1.699668-0.499903zM430.515915 95.381371l4.29916 11.097832c-8.598321 2.499512-13.497364 2.499512-23.39543 5.498926l1.199765 1.199766c-4.29916-1.799649-15.996876 6.098809-22.695567 1.799648l-0.599883-0.599882c-1.199766 8.598321-11.097832 4.29916-14.097246 5.498926-2.499512-4.29916 3.099395-2.499512-3.099395-7.998438l7.998438-3.099395 3.099394 7.998438c6.798672-3.099395 5.498926-6.798672 7.998438-12.297598 14.097247-2.399531 21.495802-4.799063 39.292326-9.098223zM642.674478 104.579574c1.199766 2.499512-5.498926 5.498926 0 11.097833-4.899043-4.29916-14.79711 2.499512-19.096271 1.199765-6.798672-3.699277 3.099395-1.799649 0.599883-7.998437 3.099395-1.299746 7.398555 0 18.496388-4.299161zM594.083968 95.381371c3.099395-1.199766 1.199766 4.29916 8.598321 1.199765l3.099394 7.998438c5.498926-6.798672 11.697715 0 14.097247-4.29916l3.099395 7.998438c-4.29916-2.499512-2.499512 5.498926-5.498926 6.798672-3.099395 2.499512-4.29916-2.499512-12.297599 1.199766-5.498926-2.499512-3.099395-6.798672-6.798672-5.498926-1.199766-3.099395 2.499512-5.498926 1.199766-8.598321 0-4.999024-7.998438-1.299746-5.498926-6.798672z" fill="#040000" p-id="13963"></path><path d="M420.117946 100.880297c-3.699277-1.199766-12.897481 5.498926-8.598321 11.097832v-0.599883c0-2.499512 7.398555-1.799649 9.798086-6.798672l0.599883-0.599883-1.799648-3.099394zM521.498145 81.784027l3.099395 7.998437c2.499512 3.099395 2.499512 3.099395 5.498926 2.499512 0 0-2.499512 5.498926-1.199766 8.598321-9.798086 4.29916-19.09627 4.29916-22.095685-3.099395 3.099395-1.199766 1.199766 4.29916 8.598321 1.199766-1.199766-3.099395-4.29916-2.499512-9.798086-4.29916-3.099395 2.499512 3.099395 7.998438 3.099394 7.998437-11.697715 0-25.794962 6.798672-33.793399-3.099394-4.29916 9.798086-11.097832 4.29916-22.095685 8.59832l-5.498926-14.097246c3.699277-4.899043 6.798672-1.799649 8.598321-3.099395 0 2.499512 2.499512 2.499512 4.899043 8.598321 7.398555 1.199766 20.296036-15.396993 19.09627-5.498926 2.499512-4.29916 12.297598-11.097832 14.097247-4.299161 0-0.599883-0.599883-3.699277 1.799648-5.498926h0.599883c7.298574 5.498926 19.596173 4.29916 25.095099-2.499511zM558.390939 88.582699c8.598321-7.998438 12.897481 3.099395 20.296036 0 1.199766 3.099395-4.29916 9.798086 4.899043 11.097832-1.199766-3.099395 0.599883-7.398555 1.199766-8.59832 3.099395-1.199766 1.199766 4.29916 8.598321 1.199765-2.499512 5.498926-2.499512 5.498926 3.099394 7.998438-4.29916 1.199766-7.998438 2.499512-9.798086 7.998438-5.498926-2.499512-9.798086-4.29916-17.796524-1.199766-1.199766-3.099395 2.499512-4.29916 4.29916-11.097832-4.899043-3.099395-8.598321-1.899629-14.79711-7.398555zM441.613747 95.981254c1.199766 3.099395-2.499512 5.498926-1.199765 8.59832-1.199766 1.199766-2.499512 1.199766-3.099395 1.199766 0.599883-1.799649-3.699277-7.398555 4.29916-9.798086z" fill="#040000" p-id="13964"></path><path d="M555.991408 81.784027c0 8.598321 3.099395 7.998438 3.099395 7.398555-2.499512 5.498926 9.798086 4.29916 7.998437 9.798086-5.498926-2.499512-12.297598 1.199766-15.396992-6.798672-5.498926 6.798672-2.499512 14.097247-7.998438 12.297598l-3.099395-7.998438 6.798672-2.499512c1.199766-8.598321-4.29916-2.499512-7.998438-9.798086 7.298574-2.399531 8.598321 0.699863 16.596759-2.399531zM524.59754 91.682093l-5.498926 2.499512c2.499512 3.099395 5.498926 2.499512 5.498926 2.499512 1.799649-1.299746 0-3.799258 0-4.999024zM770.749463 76.785003c2.799453-2.299551 7.998438-2.299551 10.198008 1.099785l-2.299551 2.299551 3.999219 6.29877c-2.799453 2.299551-2.799453 2.299551-7.998438 1.099785-1.699668-2.19957-1.699668-7.298574-3.899238-10.797891zM289.143527 75.685218c-1.099785 2.299551-2.299551 2.799453-3.999219 3.999219 0-1.099785 0-2.299551 1.099785-2.799454 0.599883-0.09998 1.799649-1.199766 2.899434-1.199765zM766.750244 65.48721c7.398555 3.399336-2.299551 3.999219-2.799453 6.298769-1.199766-2.399531-2.399531-5.198985 2.799453-6.298769zM309.639524 57.988674c5.099004 2.299551 3.999219-9.098223-2.799454-7.398555 5.099004 2.299551 2.799453 7.398555 2.799454 7.398555zM736.556141 45.491115c2.299551 2.299551 2.299551 6.798672-2.29955 9.098223l-3.999219-5.099004 6.298769-3.999219zM634.67604 42.691662c2.799453-2.299551 5.099004 1.099785 3.999219 2.299551-1.199766-0.599883-2.899434-0.599883-3.999219-2.299551zM676.767819 28.994337c5.099004 0 7.998438-2.299551 10.198008 1.099785L675.568053 39.192345c-3.899238-6.198789 0.09998-5.099004 1.199766-10.198008zM700.163249 28.394454l3.999219 6.29877-5.099004 3.999219-3.999219-5.099004c-5.198985-1.199766 2.19957-3.399336 5.099004-5.198985zM647.173599 20.495997c7.398555 3.999219 5.099004 5.698887-2.799453 7.398555l-2.299551-2.799453 5.099004-4.599102zM482.105839 22.795548c0.599883 2.299551 2.299551 4.599102 0 5.099004-0.599883-1.699668-0.599883-3.999219 0-5.099004zM488.904511 15.297012c0 1.099785-1.099785 1.099785-1.099785 1.099786h0.599882c1.699668 0 3.399336 0 2.799454 2.799453l2.799453-1.099785c-0.499902-1.599688-2.799453-2.799453-5.099004-2.799454zM546.993165 17.096661c-2.799453-3.399336-1.699668-11.997657-5.698887-6.798672 1.199766 2.19957 3.999219 4.999024 5.698887 6.798672zM527.696934 12.497559c-1.099785-2.799453-2.799453-6.29877-6.29877-5.099004 2.299551 6.798672-2.299551 5.099004-1.099785 7.998438l7.398555-2.899434zM538.494825 3.999219c-2.299551 1.099785-1.099785 6.29877-1.099785 7.998438 3.899238-1.799649 1.599688-4.599102 1.099785-7.998438z" fill="#040000" p-id="13965"></path><path d="M438.814294 294.642453c-2.09959 3.499317-5.798867 5.898848-10.997852 7.398555l-166.167545 44.791251 35.693028 182.064441c0.999805 5.198985 0.399922 9.498145-1.899629 13.097442s-6.098809 5.798867-11.397773 6.898652l-10.49795 2.199571c-5.298965 1.199766-9.698106 0.699863-13.197422-1.699668s-5.698887-6.198789-6.798673-11.597735l-37.692638-196.161687c-1.899629-10.797891 2.299551-17.596563 12.59754-20.396017l80.3843-21.695762c-0.999805-5.198985 0.199961-9.998047 3.699277-14.397188s7.898457-7.398555 13.397384-8.898262l1.599687-0.399922c5.398946-1.499707 10.797891-1.199766 15.996876 0.899824 5.198985 2.09959 8.698301 5.598906 10.497949 10.59793l65.087288-17.596563c5.298965-1.399727 9.698106-1.099785 13.197422 0.799844 3.499317 1.999609 5.998828 5.598906 7.498536 10.797891 1.399727 5.498926 1.099785 9.898067-0.999805 13.297403z m32.593634 132.574106c3.599297 2.09959 6.098809 5.698887 7.498536 10.997852 1.399727 5.298965 1.099785 9.698106-0.999805 13.297403-2.09959 3.599297-5.698887 6.098809-10.997852 7.498536l-47.090803 12.69752 5.798868 21.495801c1.399727 5.298965 1.099785 9.698106-0.999805 13.297403-2.09959 3.599297-5.698887 6.098809-10.997852 7.498535l-8.698301 2.399532c-5.298965 1.399727-9.698106 1.099785-13.297403-0.999805-3.599297-2.09959-6.098809-5.698887-7.498535-10.997852l-5.798868-21.495802-56.289006 15.097052c-5.298965 1.399727-9.698106 1.099785-13.297403-0.999805-3.599297-2.09959-6.098809-5.698887-7.498535-10.997852-1.399727-5.298965-1.099785-9.698106 0.999805-13.297403 2.09959-3.599297 5.698887-6.098809 10.997852-7.498535l56.388986-15.197032-4.499121-16.596758-37.892599 10.198008c-8.49834 2.299551-16.096856 0.699863-22.595587-4.699082l-4.19918-3.599297c-4.29916-3.699277-7.098614-7.698496-8.198399-12.097638-0.699863-2.499512-0.899824-5.598906-0.699863-9.198203l1.799649-20.396017c-4.29916 0.599883-7.998438-0.09998-10.897872-1.999609-2.999414-1.899629-4.999024-5.099004-6.198789-9.398164-1.299746-4.899043-0.899824-8.998243 1.199765-12.397579 2.09959-3.399336 5.798867-5.798867 11.097833-7.198594l7.598516-2.09959 0.599883-6.29877c0.599883-8.49834 4.499121-13.797305 11.597734-15.696934 1.799649-0.499902 3.799258-0.699863 5.898848-0.699863l7.298575-0.199961c9.698106-0.299941 15.097051 3.599297 16.296817 11.697715l91.482132-24.695177c5.298965-1.399727 9.698106-1.199766 13.197423 0.699864s5.898848 5.298965 7.298574 10.198008c1.299746 4.899043 0.899824 9.098223-1.199766 12.397579-2.09959 3.399336-5.798867 5.798867-11.097832 7.198594l-101.880102 27.49463-2.09959 24.495215 22.895529-6.198789-0.399922-1.399727c-1.399727-5.298965-1.099785-9.698106 0.999805-13.297402 2.09959-3.599297 5.698887-6.098809 10.997852-7.498536l8.698301-2.399531c5.298965-1.399727 9.598125-1.199766 13.197422 0.499902 3.499317 1.799649 5.798867 4.899043 6.998633 9.198204l0.999805 3.499316 40.592072-10.997852c5.298965-1.399727 9.698106-1.099785 13.197422 0.799844 3.499317 1.999609 5.998828 5.598906 7.498535 10.797891 1.399727 5.298965 1.099785 9.698106-0.999804 13.297403-2.09959 3.599297-5.698887 6.098809-10.997852 7.498535l-40.592072 10.997852 4.499121 16.596759 47.090803-12.69752c5.198985-0.999805 9.598125-0.699863 13.197422 1.399726zM559.890646 293.342707l41.391916 153.370044c1.299746 4.699082 0.699863 9.098223-1.599688 13.097442s-5.798867 6.698692-10.59793 7.998438l-3.499316 0.999805c-4.699082 1.299746-9.098223 0.699863-13.097442-1.599688s-6.698692-5.798867-7.998438-10.59793l-15.796915-58.588557-3.199375-24.895137-1.399726 7.998437c-0.599883 3.699277-1.899629 6.698692-4.0992 9.098223-2.19957 2.399531-4.899043 4.099199-8.198398 4.999024-2.699473 0.699863-5.898848 0.699863-9.398165-0.09998l-3.099395-0.599883c-3.099395-0.699863-5.698887-2.09959-7.898457-4.299161-2.09959-2.09959-3.599297-4.699082-4.399141-7.598515-0.699863-2.499512-0.799844-5.099004-0.299941-7.798477l17.296622-91.782074-17.196642 4.599102c-4.699082 1.299746-9.098223 0.799844-13.097441-1.599688-3.999219-2.299551-6.698692-5.798867-7.998438-10.59793l-0.599883-2.19957c-1.299746-4.699082-0.799844-9.098223 1.599687-13.097442 2.299551-3.999219 5.798867-6.698692 10.597931-7.998438l34.293302-9.298184 2.09959-10.797891c0.499902-3.199375 1.799649-5.998828 3.899238-8.198399 2.09959-2.19957 4.599102-3.699277 7.498535-4.499121 1.599688-0.399922 3.499317-0.699863 5.698887-0.699864l1.499707 0.199961c4.29916 0.199961 8.098418 1.599688 11.197813 4.0992 3.099395 2.599492 4.999024 5.798867 5.698887 9.698106l118.776802-31.993752c4.699082-1.299746 9.098223-0.699863 13.097442 1.599688s6.698692 5.798867 7.998437 10.59793l0.599883 2.19957c1.299746 4.699082 0.699863 9.098223-1.599687 13.097442s-5.798867 6.698692-10.59793 7.998438l-133.973834 36.192931-3.599297 20.9959z m175.965632 24.795157c3.999219 2.299551 6.698692 5.798867 7.998438 10.59793l0.599883 2.19957c1.299746 4.699082 0.699863 9.098223-1.599688 13.097442s-5.798867 6.698692-10.59793 7.998438l-36.792814 9.898067 13.897286 52.689709c1.299746 4.899043 0.799844 9.298184-1.499707 13.297403-2.299551 3.899238-5.898848 6.598711-10.59793 7.798476L658.571373 446.112869c-4.699082 1.299746-9.098223 0.699863-13.097442-1.599688s-6.698692-5.798867-7.998438-10.59793l-0.299941-1.099785c-1.299746-4.699082-0.799844-9.098223 1.599687-13.097442 2.299551-3.999219 5.798867-6.698692 10.59793-7.998438l18.296427-4.899043-9.398165-34.893185-48.190587 12.997461c-4.699082 1.299746-9.098223 0.799844-13.097442-1.599687-3.999219-2.299551-6.698692-5.798867-7.998438-10.59793l-0.599883-2.199571c-1.299746-4.699082-0.799844-9.098223 1.599688-13.097442 2.299551-3.999219 5.798867-6.698692 10.59793-7.998437l48.490529-13.097442c-1.099785-3.999219-0.399922-7.898457 2.09959-11.697716l18.296426-26.594805-69.186487 18.696348c-4.699082 1.299746-9.098223 0.799844-13.097442-1.399727s-6.698692-5.698887-7.898457-10.397969c-1.199766-4.499121-0.699863-8.798282 1.699668-12.69752 2.299551-3.899238 5.898848-6.598711 10.59793-7.798477l102.979887-27.794571c4.699082-1.299746 9.198203-0.699863 13.297403 1.699668 4.19918 2.399531 6.898653 5.898848 8.098418 10.697911l2.599492 10.69791c1.199766 4.499121 0.499902 8.49834-1.999609 11.897676L692.964655 324.536614l29.994142-8.098418c4.499121-1.199766 8.898262-0.599883 12.897481 1.699668zM422.117555 635.675845c3.699277 2.09959 6.198789 5.798867 7.698497 11.097832l36.592853 136.573326c1.399727 5.298965 1.099785 9.698106-0.999805 13.297402-2.09959 3.599297-5.698887 6.098809-10.997852 7.498536l-10.098028 2.699473c-5.099004 1.399727-9.498145 0.999805-13.197422-1.099786-3.699277-2.09959-6.198789-5.798867-7.698497-11.097832L388.024214 663.270455l-38.09256 97.081039c-2.09959 5.798867-5.598906 9.398164-10.297989 10.69791-3.499317 0.899824-7.498535 0.499902-12.097637-1.399726L319.037688 766.050381c-5.498926-2.19957-8.798282-5.698887-10.098028-10.397969-0.899824-3.299356-0.499902-7.198594 1.199766-11.697716l49.990236-125.675454-62.987698 16.696739c-5.298965 1.399727-9.698106 1.099785-13.297402-0.999804-3.599297-2.09959-6.098809-5.698887-7.498536-10.997852l-1.099785-4.0992c-1.399727-5.298965-1.099785-9.698106 0.999805-13.297403 2.09959-3.599297 5.698887-6.098809 10.997852-7.498535l192.262448-51.889865c5.298965-1.399727 9.698106-1.099785 13.297403 0.999804 3.599297 2.09959 6.098809 5.698887 7.498536 10.997852l1.099785 4.0992c1.399727 5.298965 1.099785 9.698106-0.999805 13.297403-2.09959 3.599297-5.698887 6.098809-10.997852 7.498535L411.019723 604.481937l-12.997462 32.993556 0.499903-0.09998 10.397969-2.799454c5.099004-1.399727 9.498145-0.999805 13.197422 1.099786z m119.976567 54.689318c1.299746 4.899043-0.09998 9.798086-4.19918 14.597149l-4.899043 5.698887c-2.799453 3.299356-5.898848 5.398946-9.098223 6.29877-4.899043 1.299746-9.798086-0.09998-14.597149-4.19918l-59.3884-48.890451c-3.499317-2.899434-5.698887-5.998828-6.498731-9.098223-1.299746-4.699082 0.299941-9.698106 4.699082-14.997071l5.198985-5.798867c2.799453-3.299356 5.898848-5.398946 9.098223-6.29877 4.899043-1.299746 9.798086 0.09998 14.597149 4.19918l58.888498 49.290373c3.199375 2.899434 5.298965 5.998828 6.198789 9.198203zM826.338606 663.370435c3.099395 2.299551 5.298965 5.398946 6.29877 9.398165 0.399922 1.599688 0.699863 2.899434 0.799843 3.899238l0.499903 10.697911c0.399922 4.399141-0.499902 8.198399-2.799454 11.397774-2.19957 3.199375-5.398946 5.398946-9.398164 6.49873-0.899824 0.199961-2.299551 0.399922-4.19918 0.599883L641.474712 715.06034l-1.399727 21.995704c-0.299941 3.999219-1.499707 7.298574-3.699277 10.098027-2.19957 2.699473-5.099004 4.599102-8.698301 5.598907-1.299746 0.299941-3.299356 0.499902-5.998829 0.499902l-10.397969-0.699863c-3.799258-0.299941-7.098614-1.599688-9.798086-3.799258-2.699473-2.19957-4.599102-4.999024-5.498926-8.49834-0.499902-1.799649-0.699863-3.799258-0.699863-5.898848l5.498926-85.883226c0.299941-3.999219 1.499707-7.298574 3.699277-10.098028 2.19957-2.699473 4.999024-4.599102 8.49834-5.498926 1.299746-0.299941 3.299356-0.499902 5.998829-0.499902l10.397969 0.699863c3.799258 0.299941 6.998633 1.599688 9.798086 3.699278 2.699473 2.09959 4.599102 4.999024 5.498926 8.59832 0.499902 1.799649 0.699863 3.799258 0.699863 5.898848l-1.099785 18.696349 40.892013-2.299551-17.496582-64.787346-65.887132 17.796524c-4.699082 1.299746-9.098223 0.799844-13.097442-1.599688-3.999219-2.299551-6.698692-5.798867-7.998437-10.59793l-19.196251-71.086116c-1.299746-4.699082-0.799844-9.098223 1.599687-13.097442 2.299551-3.999219 5.798867-6.698692 10.597931-7.998438l166.167545-44.791251c4.699082-1.299746 9.098223-0.699863 13.097442 1.599687s6.698692 5.798867 7.998438 10.59793l19.19625 71.086116c1.299746 4.699082 0.699863 9.098223-1.599687 13.097442s-5.798867 6.698692-10.59793 7.998438l-56.688928 15.297012 5.498926 20.396017 63.4876-17.096661c4.699082-1.299746 9.098223-0.699863 13.097442 1.599687s6.698692 5.798867 7.998438 10.597931l1.199765 4.39914c1.299746 4.699082 0.699863 9.098223-1.599687 13.097442s-5.798867 6.698692-10.59793 7.998438L726.958016 648.973247l4.29916 16.096856 84.083578-4.599101c4.19918-0.299941 7.898457 0.599883 10.997852 2.899433z m-94.881469-115.777387l-8.998242-33.493458-112.17809 30.294083 8.998242 33.493458 112.17809-30.294083z" fill="#040000" p-id="13966"></path></svg>